<?xml version="1.0" encoding="UTF-8" standalone="no"?>
<!-- Created with Inkscape (http://www.inkscape.org/) -->

<svg
   width="50mm"
   height="50.000004mm"
   viewBox="0 0 50 50.000004"
   version="1.1"
   id="svg1"
   xml:space="preserve"
   xmlns:inkscape="http://www.inkscape.org/namespaces/inkscape"
   xmlns:sodipodi="http://sodipodi.sourceforge.net/DTD/sodipodi-0.dtd"
   xmlns="http://www.w3.org/2000/svg"
   xmlns:svg="http://www.w3.org/2000/svg"><sodipodi:namedview
     id="namedview1"
     pagecolor="#ffffff"
     bordercolor="#000000"
     borderopacity="0.25"
     inkscape:showpageshadow="2"
     inkscape:pageopacity="0.0"
     inkscape:pagecheckerboard="0"
     inkscape:deskcolor="#d1d1d1"
     inkscape:document-units="mm" /><defs
     id="defs1" /><g
     inkscape:label="Camada 1"
     inkscape:groupmode="layer"
     id="layer1"
     transform="translate(-79.584658,-64.815542)"><g
       id="g23"><circle
         style="display:inline;fill:none;stroke:#dbb602;stroke-width:1.88373;stroke-dasharray:none;stroke-opacity:1"
         id="path1"
         cx="104.58466"
         cy="89.815544"
         r="24.058136"
         inkscape:label="aureola" /><g
         id="g22"
         transform="translate(0.82246388,-0.45934383)"><g
           id="g21"><g
             id="g20"
             inkscape:label="raios"><path
               style="vector-effect:non-scaling-stroke;fill:#fdd824;fill-opacity:1;stroke:none;stroke-width:0.264583;stroke-dasharray:none;stroke-opacity:1;-inkscape-stroke:hairline"
               d="m 101.88643,106.00081 c -4.084916,-4.21398 -8.335836,-23.94686 0.8348,-22.892419 l -0.0161,0.758804 c -5.902544,1.860474 -1.10173,16.161075 0.65524,22.473795 z"
               id="path18-3"
               sodipodi:nodetypes="ccccc" /><path
               style="vector-effect:non-scaling-stroke;fill:#fdd824;fill-opacity:1;stroke:none;stroke-width:0.264583;stroke-dasharray:none;stroke-opacity:1;-inkscape-stroke:hairline"
               d="M 97.309045,106.2154 C 84.76429,93.444711 87.423317,76.617879 102.63208,83.355266 l -0.0161,0.758804 c -16.88096,-1.49763 -8.140834,14.223705 -3.768414,22.05404 z"
               id="path18"
               sodipodi:nodetypes="ccccc" /><path
               style="vector-effect:non-scaling-stroke;fill:#fdd824;fill-opacity:1;stroke:none;stroke-width:0.264583;stroke-dasharray:none;stroke-opacity:1;-inkscape-stroke:hairline"
               d="m 106.92691,106.77576 c 6.37746,-6.05448 9.15292,-24.847387 -1.61596,-23.975602 l 0.0161,0.758804 c 8.18575,2.865086 4.43376,17.115098 0.73942,23.072638 z"
               id="path19"
               sodipodi:nodetypes="ccccc" /><path
               style="vector-effect:non-scaling-stroke;fill:#fdd824;fill-opacity:1;stroke:none;stroke-width:0.264583;stroke-dasharray:none;stroke-opacity:1;-inkscape-stroke:hairline"
               d="m 110.44915,106.87753 c 11.44692,-12.835267 10.5204,-29.04128 -5.09934,-24.176126 l 0.0161,0.758804 c 17.81707,-3.324198 7.89431,14.968895 3.72737,22.251262 z"
               id="path20"
               sodipodi:nodetypes="ccccc" /></g><path
             style="fill:#fdd824;fill-opacity:1;stroke:#dbb602;stroke-width:0.5;stroke-dasharray:none;stroke-opacity:1"
             d="m 98.09541,114.3693 c 4.60957,0.74922 8.11387,0.45819 11.26902,-0.16145 -0.10553,-1.81464 -0.2578,-3.60591 0.22603,-5.71523 3.04873,-2.69645 -0.5199,-5.90186 -1.8405,-1.58219 -0.1819,-1.54733 -2.55658,-3.70842 -3.87474,-0.12915 -1.18394,-1.96722 -3.32043,-2.94245 -3.74557,0.12915 -2.344687,-3.57851 -5.301188,-0.59087 -2.61545,1.35616 0.49244,1.9969 0.569712,4.04569 0.58121,6.10271 z"
             id="path2"
             sodipodi:nodetypes="cccccccc"
             inkscape:label="base" /><circle
             style="opacity:1;vector-effect:non-scaling-stroke;fill:#fdd824;fill-opacity:1;stroke:none;stroke-width:0.340829;stroke-dasharray:none;stroke-opacity:1;-inkscape-stroke:hairline"
             id="path13"
             cx="103.74896"
             cy="81.978554"
             r="2.5"
             inkscape:label="base_cruz" /></g><g
           id="g17"
           transform="translate(-0.2798326)"
           inkscape:label="cruz"><ellipse
             style="vector-effect:non-scaling-stroke;fill:#6a5902;fill-opacity:1;stroke:#ffffff;stroke-width:0.27786;stroke-dasharray:none;stroke-opacity:1;-inkscape-stroke:hairline"
             id="ellipse16"
             cx="103.90604"
             cy="80.246284"
             rx="0.83622575"
             ry="0.24277522" /><path
             id="path17"
             style="vector-effect:non-scaling-stroke;fill:#fdd824;fill-opacity:1;stroke:none;stroke-width:0.264583;stroke-dasharray:none;stroke-opacity:1;-inkscape-stroke:hairline"
             d="m 104.54194,80.088652 a 0.83622575,0.24277522 0 0 0 -0.63614,-0.08527 0.83622575,0.24277522 0 0 0 -0.60926,0.077 l -0.0444,0.316777 a 0.83622575,0.24277522 0 0 0 0.6537,0.09198 0.83622575,0.24277522 0 0 0 0.67903,-0.101286 z" /><path
             id="path16"
             style="vector-effect:non-scaling-stroke;fill:#fdd824;fill-opacity:1;stroke:none;stroke-width:0.264583;stroke-dasharray:none;stroke-opacity:1;-inkscape-stroke:hairline"
             d="m 103.23349,75.757133 0.3669,1.459342 -1.79213,-0.456302 v 1.848982 l 1.79213,-0.684712 -0.30385,2.15594 a 0.83622575,0.24277522 0 0 1 0.60926,-0.077 0.83622575,0.24277522 0 0 1 0.63614,0.08527 l -0.31316,-2.164209 2.02055,0.684712 v -1.848982 l -2.02055,0.456302 0.37672,-1.459342 z" /></g></g></g></g></svg>
