<svg width="32" height="32" viewBox="0 0 32 32" fill="none" xmlns="http://www.w3.org/2000/svg">
<g clip-path="url(#clip0_96_3)">
<path d="M0.677557 15.8085C0.676812 18.4971 1.37932 21.1224 2.71514 23.4363L0.549805 31.3423L8.6406 29.2208C10.8784 30.4391 13.3857 31.0774 15.9336 31.0776H15.9403C24.3515 31.0776 31.1984 24.2332 31.202 15.8205C31.2036 11.744 29.6175 7.9107 26.7357 5.02673C23.8545 2.14301 20.0225 0.554046 15.9397 0.552185C7.52754 0.552185 0.681154 7.39622 0.677681 15.8085" fill="url(#paint0_linear_96_3)"/>
<path d="M0.132713 15.8035C0.131845 18.5889 0.859535 21.308 2.24298 23.7048L0 31.8942L8.3809 29.6967C10.6901 30.9558 13.29 31.6196 15.9356 31.6206H15.9424C24.6554 31.6206 31.7482 24.53 31.7519 15.8162C31.7534 11.5932 30.1103 7.62208 27.1256 4.63479C24.1405 1.64788 20.1715 0.00173643 15.9424 0C7.22803 0 0.136186 7.08961 0.132713 15.8035ZM5.12385 23.292L4.81091 22.7953C3.49544 20.7036 2.80112 18.2865 2.80211 15.8045C2.80484 8.56174 8.69929 2.66915 15.9474 2.66915C19.4575 2.67064 22.7562 4.03895 25.2373 6.52155C27.7183 9.0044 29.0835 12.3049 29.0827 15.8152C29.0794 23.058 23.1849 28.9513 15.9424 28.9513H15.9372C13.579 28.9501 11.2662 28.3168 9.24924 27.12L8.76924 26.8353L3.79584 28.1393L5.12385 23.292Z" fill="url(#paint1_linear_96_3)"/>
<path d="M11.991 9.19665C11.6951 8.53891 11.3837 8.52564 11.1022 8.5141C10.8718 8.50418 10.6083 8.50493 10.3451 8.50493C10.0817 8.50493 9.65368 8.60403 9.29188 8.99907C8.92971 9.39448 7.90918 10.35 7.90918 12.2935C7.90918 14.2369 9.32475 16.1152 9.52208 16.379C9.71966 16.6424 12.2549 20.7582 16.27 22.3416C19.6069 23.6574 20.286 23.3957 21.0102 23.3297C21.7345 23.264 23.3474 22.3744 23.6765 21.452C24.0058 20.5297 24.0058 19.7392 23.9071 19.5739C23.8083 19.4094 23.5449 19.3105 23.1499 19.113C22.7548 18.9156 20.8126 17.9598 20.4506 17.828C20.0884 17.6962 19.8251 17.6305 19.5616 18.026C19.2982 18.421 18.5417 19.3105 18.3112 19.5739C18.0808 19.838 17.8503 19.8709 17.4553 19.6733C17.0601 19.4751 15.7879 19.0585 14.2785 17.7129C13.1042 16.6658 12.3114 15.3728 12.081 14.9772C11.8505 14.5823 12.0563 14.3682 12.2544 14.1714C12.4318 13.9944 12.6495 13.7101 12.8472 13.4796C13.0442 13.2489 13.1099 13.0843 13.2416 12.8208C13.3735 12.5571 13.3075 12.3264 13.2089 12.1289C13.1099 11.9313 12.3423 9.97767 11.991 9.19665Z" fill="white"/>
</g>
<defs>
<linearGradient id="paint0_linear_96_3" x1="1533.16" y1="3079.56" x2="1533.16" y2="0.552185" gradientUnits="userSpaceOnUse">
<stop stop-color="#1FAF38"/>
<stop offset="1" stop-color="#60D669"/>
</linearGradient>
<linearGradient id="paint1_linear_96_3" x1="1587.6" y1="3189.42" x2="1587.6" y2="0" gradientUnits="userSpaceOnUse">
<stop stop-color="#F9F9F9"/>
<stop offset="1" stop-color="white"/>
</linearGradient>
<clipPath id="clip0_96_3">
<rect width="31.7519" height="32" fill="white"/>
</clipPath>
</defs>
</svg>
