<svg width="172" height="50" viewBox="0 0 172 50" fill="none" xmlns="http://www.w3.org/2000/svg">
<path d="M38.2474 26.4465C45.0115 27.8272 51.5891 23.586 52.9389 16.9734C54.2888 10.3608 49.8997 3.88086 43.1356 2.50009C36.3715 1.11933 29.7939 5.36058 28.4441 11.9732C27.0942 18.5858 31.4833 25.0657 38.2474 26.4465Z" stroke="#DBB602"/>
<path d="M38.4097 21.2966C36.7582 18.7749 36.5989 8.51255 41.1603 9.99033L41.075 10.3663C37.8812 10.6788 38.8723 18.2948 39.1254 21.6191L38.4097 21.2966Z" fill="#FDD824"/>
<path d="M36.0577 20.9279C30.9688 13.2685 34.0319 5.17054 41.0899 10.1041L41.0046 10.48C32.5631 7.98044 35.4153 16.7129 36.8457 21.0642L36.0577 20.9279Z" fill="#FDD824"/>
<path d="M40.8969 22.2061C44.7586 19.8556 48.0807 10.7913 42.51 10.1061L42.4411 10.4854C46.3172 12.7619 42.9594 19.4639 40.4735 22.0449L40.8969 22.2061Z" fill="#FDD824"/>
<path d="M42.6796 22.6228C49.811 17.4245 50.9857 9.26286 42.5398 10.0609L42.4709 10.4403C51.8789 10.6374 44.969 18.7103 42.1079 21.9015L42.6796 22.6228Z" fill="#FDD824"/>
<path d="M35.6295 25.0675C37.9 25.9194 39.7136 26.1387 41.3827 26.1582C41.5134 25.2441 41.6178 24.3368 42.0784 23.3373C43.9044 22.3122 42.4133 20.3461 41.3022 22.3586C41.3668 21.5697 40.3774 20.2474 39.3428 21.8917C38.9399 20.7896 37.9513 20.0823 37.4229 21.5667C36.5928 19.5421 34.7842 20.7218 35.9536 21.9699C36.0015 23.0149 35.8327 24.0425 35.6295 25.0675Z" fill="#FDD824" stroke="#DBB602" stroke-width="0.25"/>
<path d="M41.5443 10.779C42.2472 10.9225 42.9307 10.4818 43.0709 9.79464C43.2112 9.10749 42.7551 8.43413 42.0522 8.29065C41.3493 8.14717 40.6658 8.5879 40.5256 9.27505C40.3853 9.96219 40.8414 10.6356 41.5443 10.779Z" fill="#FDD824"/>
<path d="M41.8869 8.78079C42.122 8.82878 42.3236 8.81359 42.3372 8.74686C42.3509 8.68013 42.1713 8.58713 41.9362 8.53914C41.7011 8.49115 41.4995 8.50633 41.4858 8.57306C41.4722 8.63979 41.6518 8.73279 41.8869 8.78079Z" fill="#6A5902" stroke="white" stroke-width="0.25"/>
<path d="M42.2512 8.64759C42.214 8.62613 42.1665 8.60532 42.1121 8.58658C42.0577 8.56784 41.9976 8.55162 41.936 8.53904C41.8778 8.5272 41.8196 8.51887 41.7649 8.51457C41.7102 8.51028 41.6602 8.5101 41.6181 8.51405L41.5633 8.66709C41.6001 8.68945 41.6484 8.71129 41.7044 8.73098C41.7604 8.75066 41.8227 8.76769 41.8867 8.7808C41.9543 8.79458 42.0218 8.8036 42.0837 8.8071C42.1456 8.81061 42.2001 8.8085 42.2427 8.80096L42.2512 8.64759Z" fill="#FDD824"/>
<path d="M42.0251 6.35592L42.0636 7.12033L41.1977 6.707L41.0098 7.62719L41.9917 7.47267L41.618 8.51405C41.6602 8.5101 41.7102 8.51027 41.7649 8.51457C41.8196 8.51887 41.8778 8.5272 41.936 8.53904C41.9976 8.55162 42.0576 8.56784 42.1121 8.58658C42.1665 8.60532 42.2139 8.62613 42.2512 8.64759L42.3116 7.53797L43.2707 8.0887L43.4585 7.16851L42.3835 7.18563L42.7236 6.4985L42.0251 6.35592Z" fill="#FDD824"/>
<path d="M0.84 31.6C0.84 29.952 1.208 28.48 1.944 27.184C2.696 25.872 3.712 24.856 4.992 24.136C6.288 23.4 7.736 23.032 9.336 23.032C11.208 23.032 12.848 23.512 14.256 24.472C15.664 25.432 16.648 26.76 17.208 28.456H13.344C12.96 27.656 12.416 27.056 11.712 26.656C11.024 26.256 10.224 26.056 9.312 26.056C8.336 26.056 7.464 26.288 6.696 26.752C5.944 27.2 5.352 27.84 4.92 28.672C4.504 29.504 4.296 30.48 4.296 31.6C4.296 32.704 4.504 33.68 4.92 34.528C5.352 35.36 5.944 36.008 6.696 36.472C7.464 36.92 8.336 37.144 9.312 37.144C10.224 37.144 11.024 36.944 11.712 36.544C12.416 36.128 12.96 35.52 13.344 34.72H17.208C16.648 36.432 15.664 37.768 14.256 38.728C12.864 39.672 11.224 40.144 9.336 40.144C7.736 40.144 6.288 39.784 4.992 39.064C3.712 38.328 2.696 37.312 1.944 36.016C1.208 34.72 0.84 33.248 0.84 31.6ZM23.9179 28.768C24.3499 28.064 24.9099 27.512 25.5979 27.112C26.3019 26.712 27.1019 26.512 27.9979 26.512V30.04H27.1099C26.0539 30.04 25.2539 30.288 24.7099 30.784C24.1819 31.28 23.9179 32.144 23.9179 33.376V40H20.5579V26.704H23.9179V28.768ZM43.101 33.064C43.101 33.544 43.069 33.976 43.005 34.36H33.285C33.365 35.32 33.701 36.072 34.293 36.616C34.885 37.16 35.613 37.432 36.477 37.432C37.725 37.432 38.613 36.896 39.141 35.824H42.765C42.381 37.104 41.645 38.16 40.557 38.992C39.469 39.808 38.133 40.216 36.549 40.216C35.269 40.216 34.117 39.936 33.093 39.376C32.085 38.8 31.293 37.992 30.717 36.952C30.157 35.912 29.877 34.712 29.877 33.352C29.877 31.976 30.157 30.768 30.717 29.728C31.277 28.688 32.061 27.888 33.069 27.328C34.077 26.768 35.237 26.488 36.549 26.488C37.813 26.488 38.941 26.76 39.933 27.304C40.941 27.848 41.717 28.624 42.261 29.632C42.821 30.624 43.101 31.768 43.101 33.064ZM39.621 32.104C39.605 31.24 39.293 30.552 38.685 30.04C38.077 29.512 37.333 29.248 36.453 29.248C35.621 29.248 34.917 29.504 34.341 30.016C33.781 30.512 33.437 31.208 33.309 32.104H39.621ZM45.1695 33.304C45.1695 31.96 45.4335 30.768 45.9615 29.728C46.5055 28.688 47.2415 27.888 48.1695 27.328C49.0975 26.768 50.1295 26.488 51.2655 26.488C52.1295 26.488 52.9535 26.68 53.7375 27.064C54.5215 27.432 55.1455 27.928 55.6095 28.552V22.24H59.0175V40H55.6095V38.032C55.1935 38.688 54.6095 39.216 53.8575 39.616C53.1055 40.016 52.2335 40.216 51.2415 40.216C50.1215 40.216 49.0975 39.928 48.1695 39.352C47.2415 38.776 46.5055 37.968 45.9615 36.928C45.4335 35.872 45.1695 34.664 45.1695 33.304ZM55.6335 33.352C55.6335 32.536 55.4735 31.84 55.1535 31.264C54.8335 30.672 54.4015 30.224 53.8575 29.92C53.3135 29.6 52.7295 29.44 52.1055 29.44C51.4815 29.44 50.9055 29.592 50.3775 29.896C49.8495 30.2 49.4175 30.648 49.0815 31.24C48.7615 31.816 48.6015 32.504 48.6015 33.304C48.6015 34.104 48.7615 34.808 49.0815 35.416C49.4175 36.008 49.8495 36.464 50.3775 36.784C50.9215 37.104 51.4975 37.264 52.1055 37.264C52.7295 37.264 53.3135 37.112 53.8575 36.808C54.4015 36.488 54.8335 36.04 55.1535 35.464C55.4735 34.872 55.6335 34.168 55.6335 33.352ZM81.0431 23.248V40H77.6831V29.104L73.1951 40H70.6511L66.1391 29.104V40H62.7791V23.248H66.5951L71.9231 35.704L77.2511 23.248H81.0431ZM83.9811 33.304C83.9811 31.96 84.2451 30.768 84.7731 29.728C85.3171 28.688 86.0451 27.888 86.9571 27.328C87.8851 26.768 88.9171 26.488 90.0531 26.488C91.0451 26.488 91.9091 26.688 92.6451 27.088C93.3971 27.488 93.9971 27.992 94.4451 28.6V26.704H97.8291V40H94.4451V38.056C94.0131 38.68 93.4131 39.2 92.6451 39.616C91.8931 40.016 91.0211 40.216 90.0291 40.216C88.9091 40.216 87.8851 39.928 86.9571 39.352C86.0451 38.776 85.3171 37.968 84.7731 36.928C84.2451 35.872 83.9811 34.664 83.9811 33.304ZM94.4451 33.352C94.4451 32.536 94.2851 31.84 93.9651 31.264C93.6451 30.672 93.2131 30.224 92.6691 29.92C92.1251 29.6 91.5411 29.44 90.9171 29.44C90.2931 29.44 89.7171 29.592 89.1891 29.896C88.6611 30.2 88.2291 30.648 87.8931 31.24C87.5731 31.816 87.4131 32.504 87.4131 33.304C87.4131 34.104 87.5731 34.808 87.8931 35.416C88.2291 36.008 88.6611 36.464 89.1891 36.784C89.7331 37.104 90.3091 37.264 90.9171 37.264C91.5411 37.264 92.1251 37.112 92.6691 36.808C93.2131 36.488 93.6451 36.04 93.9651 35.464C94.2851 34.872 94.4451 34.168 94.4451 33.352ZM104.951 28.768C105.383 28.064 105.943 27.512 106.631 27.112C107.335 26.712 108.135 26.512 109.031 26.512V30.04H108.143C107.087 30.04 106.287 30.288 105.743 30.784C105.215 31.28 104.951 32.144 104.951 33.376V40H101.591V26.704H104.951V28.768ZM110.91 33.328C110.91 32 111.182 30.824 111.726 29.8C112.286 28.76 113.038 27.952 113.982 27.376C114.926 26.8 115.966 26.512 117.102 26.512C118.046 26.512 118.878 26.696 119.598 27.064C120.334 27.416 120.926 27.872 121.374 28.432V26.704H124.758V46.336H121.374V38.176C120.926 38.752 120.326 39.232 119.574 39.616C118.822 40 117.974 40.192 117.03 40.192C115.91 40.192 114.878 39.904 113.934 39.328C113.006 38.736 112.27 37.92 111.726 36.88C111.182 35.84 110.91 34.656 110.91 33.328ZM121.374 33.352C121.374 32.536 121.206 31.832 120.87 31.24C120.534 30.648 120.094 30.2 119.55 29.896C119.022 29.592 118.454 29.44 117.846 29.44C117.254 29.44 116.686 29.592 116.142 29.896C115.614 30.2 115.182 30.648 114.846 31.24C114.51 31.816 114.342 32.512 114.342 33.328C114.342 34.144 114.51 34.856 114.846 35.464C115.182 36.056 115.614 36.504 116.142 36.808C116.686 37.112 117.254 37.264 117.846 37.264C118.454 37.264 119.022 37.112 119.55 36.808C120.094 36.504 120.534 36.056 120.87 35.464C121.206 34.872 121.374 34.168 121.374 33.352ZM141.071 26.704V40H137.687V38.32C137.255 38.896 136.687 39.352 135.983 39.688C135.295 40.008 134.543 40.168 133.727 40.168C132.687 40.168 131.767 39.952 130.967 39.52C130.167 39.072 129.535 38.424 129.071 37.576C128.623 36.712 128.399 35.688 128.399 34.504V26.704H131.759V34.024C131.759 35.08 132.023 35.896 132.551 36.472C133.079 37.032 133.799 37.312 134.711 37.312C135.639 37.312 136.367 37.032 136.895 36.472C137.423 35.896 137.687 35.08 137.687 34.024V26.704H141.071ZM157.227 33.064C157.227 33.544 157.195 33.976 157.131 34.36H147.411C147.491 35.32 147.827 36.072 148.419 36.616C149.011 37.16 149.739 37.432 150.603 37.432C151.851 37.432 152.739 36.896 153.267 35.824H156.891C156.507 37.104 155.771 38.16 154.683 38.992C153.595 39.808 152.259 40.216 150.675 40.216C149.395 40.216 148.243 39.936 147.219 39.376C146.211 38.8 145.419 37.992 144.843 36.952C144.283 35.912 144.003 34.712 144.003 33.352C144.003 31.976 144.283 30.768 144.843 29.728C145.403 28.688 146.187 27.888 147.195 27.328C148.203 26.768 149.363 26.488 150.675 26.488C151.939 26.488 153.067 26.76 154.059 27.304C155.067 27.848 155.843 28.624 156.387 29.632C156.947 30.624 157.227 31.768 157.227 33.064ZM153.747 32.104C153.731 31.24 153.419 30.552 152.811 30.04C152.203 29.512 151.459 29.248 150.579 29.248C149.747 29.248 149.043 29.504 148.467 30.016C147.907 30.512 147.563 31.208 147.435 32.104H153.747ZM165.247 40.216C164.159 40.216 163.183 40.024 162.319 39.64C161.455 39.24 160.767 38.704 160.255 38.032C159.759 37.36 159.487 36.616 159.439 35.8H162.823C162.887 36.312 163.135 36.736 163.567 37.072C164.015 37.408 164.567 37.576 165.223 37.576C165.863 37.576 166.359 37.448 166.711 37.192C167.079 36.936 167.263 36.608 167.263 36.208C167.263 35.776 167.039 35.456 166.591 35.248C166.159 35.024 165.463 34.784 164.503 34.528C163.511 34.288 162.695 34.04 162.055 33.784C161.431 33.528 160.887 33.136 160.423 32.608C159.975 32.08 159.751 31.368 159.751 30.472C159.751 29.736 159.959 29.064 160.375 28.456C160.807 27.848 161.415 27.368 162.199 27.016C162.999 26.664 163.935 26.488 165.007 26.488C166.591 26.488 167.855 26.888 168.799 27.688C169.743 28.472 170.263 29.536 170.359 30.88H167.143C167.095 30.352 166.871 29.936 166.471 29.632C166.087 29.312 165.567 29.152 164.911 29.152C164.303 29.152 163.831 29.264 163.495 29.488C163.175 29.712 163.015 30.024 163.015 30.424C163.015 30.872 163.239 31.216 163.687 31.456C164.135 31.68 164.831 31.912 165.775 32.152C166.735 32.392 167.527 32.64 168.151 32.896C168.775 33.152 169.311 33.552 169.759 34.096C170.223 34.624 170.463 35.328 170.479 36.208C170.479 36.976 170.263 37.664 169.831 38.272C169.415 38.88 168.807 39.36 168.007 39.712C167.223 40.048 166.303 40.216 165.247 40.216Z" fill="#001414"/>
</svg>
